<?xml version="1.0" encoding="iso-8859-1"?>
<!-- Generator: Adobe Illustrator 19.0.0, SVG Export Plug-In . SVG Version: 6.00 Build 0)  -->
<svg xmlns="http://www.w3.org/2000/svg" xmlns:xlink="http://www.w3.org/1999/xlink" version="1.1" id="Layer_1" x="0px" y="0px" viewBox="0 0 512.001 512.001" style="enable-background:new 0 0 512.001 512.001;" xml:space="preserve" width="512px" height="512px">
<g>
	<g>
		<circle cx="207.841" cy="126.472" r="11.105" fill="#f69653"/>
	</g>
</g>
<g>
	<g>
		<circle cx="304.156" cy="126.472" r="11.105" fill="#f69653"/>
	</g>
</g>
<g>
	<g>
		<path d="M301.957,165.463c-0.001-0.023-0.004-0.045-0.005-0.069c-0.277-21.283-20.824-38.556-45.951-38.556    s-45.669,17.268-45.951,38.548c-0.001,0.028-0.005,0.056-0.006,0.084c-0.004,0.114-0.007,0.262-0.007,0.359    c0,21.5,20.62,38.991,45.965,38.991c25.344,0,45.964-17.492,45.964-38.991C301.964,165.709,301.962,165.588,301.957,165.463z     M256.001,188.999c-11.499,0-21.514-4.976-26.595-12.272c0.076,0.015,0.153,0.025,0.229,0.04    c8.662,1.65,17.533,2.333,26.367,2.334c6.4,0,12.812-0.389,19.16-1.207c2.155-0.277,4.304-0.61,6.442-0.994    c0.225-0.041,0.451-0.077,0.675-0.118c0.105-0.019,0.214-0.036,0.319-0.056C277.515,184.024,267.499,188.999,256.001,188.999z     M284.17,160.222c-9.206,2.168-18.72,3.058-28.169,3.058c-5.043,0-10.089-0.244-15.103-0.804    c-1.181-0.132-14.117-2.326-14.056-2.503c3.39-9.944,15.195-17.312,29.159-17.312c13.964,0,25.768,7.368,29.158,17.312    C284.828,160.054,284.504,160.143,284.17,160.222z" fill="#f69653"/>
	</g>
</g>
<g>
	<g>
		<path d="M430.848,297.963c-6.22-2.88-13.338-1.622-18.158,3.222l-22.695,23.129c-1.726,1.758-3.738,3.123-5.931,4.065    c-2.299-48.054-21.697-79.724-31.836-93.136c9.093-7.06,15.498-14.742,19.981-21.971c15.852-25.56,14.203-55.076,5.963-71.683    c-5.07-10.22-9.16-21.391-12.5-34.15c-9.404-35.919-35.701-64.663-70.009-77.442c7.986-10.766,9.826-19.206,10.048-20.364    c0.422-2.192-0.102-4.461-1.442-6.246c-1.34-1.785-3.372-2.921-5.595-3.127c-2.549-0.237-25.321-2.014-39.479,8.359    c-1.881,1.379-4.509,1.379-6.392,0c-14.157-10.372-36.929-8.596-39.479-8.359c-2.222,0.207-4.255,1.342-5.595,3.127    c-1.34,1.785-1.864,4.054-1.442,6.246c0.223,1.159,2.064,9.605,10.059,20.378c-12.324,4.62-23.885,11.415-33.933,19.997    c-3.322,2.837-3.715,7.832-0.878,11.154c2.839,3.323,7.833,3.715,11.154,0.878c11.398-9.736,25.052-16.797,39.483-20.419    c2.771-0.696,4.951-2.832,5.706-5.587c0.753-2.756-0.038-5.704-2.07-7.713c-4.485-4.433-7.586-8.655-9.705-12.175    c6.063,0.559,12.927,1.997,17.35,5.236c7.506,5.5,17.59,5.5,25.095,0c4.451-3.26,11.288-4.701,17.359-5.253    c-2.121,3.527-5.224,7.754-9.714,12.192c-2.032,2.008-2.823,4.957-2.07,7.713s2.933,4.891,5.704,5.587    c34.501,8.66,61.531,35.417,70.539,69.827c3.617,13.816,8.076,25.975,13.632,37.175c5.304,10.689,8.286,34.508-5.236,56.312    c-20.914,33.722-66.459,40.692-102.761,40.692c-36.403,0-81.794-6.881-102.762-40.693c-13.523-21.804-10.54-45.622-5.236-56.312    c5.557-11.2,10.017-23.36,13.632-37.175c2.517-9.612,6.499-18.769,11.834-27.218c2.333-3.694,1.23-8.581-2.464-10.913    c-3.695-2.333-8.58-1.23-10.913,2.464c-6.203,9.824-10.834,20.475-13.762,31.66c-3.341,12.759-7.429,23.93-12.501,34.15    c-8.24,16.607-9.888,46.123,5.964,71.683c4.483,7.23,10.889,14.911,19.981,21.971c-10.139,13.412-29.535,45.082-31.835,93.136    c-2.193-0.942-4.207-2.307-5.932-4.065l-22.538-22.968l-0.178-0.18c-4.799-4.827-11.919-6.084-18.138-3.205    c-6.301,2.918-9.996,9.249-9.412,16.128c5.389,63.517,27.751,115.601,64.667,150.623c32.143,30.494,74.616,47.288,119.593,47.288    c41.996,0,82.327-14.858,113.563-41.838c3.307-2.856,3.672-7.852,0.815-11.159c-2.856-3.306-7.852-3.672-11.158-0.815    c-28.362,24.498-65.02,37.99-103.22,37.99c-40.908,0-79.513-15.25-108.703-42.945c-34.059-32.311-54.733-80.89-59.79-140.482    c-0.017-0.191,0.012-0.219,0.079-0.286c0.15-0.149,0.369-0.214,0.392-0.224c0,0,0.033,0.019,0.093,0.08    c0.005,0.005,0.085,0.085,0.091,0.092c13.824,14.09,27.189,34.472,49.417,33.1c18.764-1.158,32.731-20.805,44.794-33.1    c7.107-7.243,19.416-7.243,26.523,0.001c13.29,13.545,25.925,33.29,47.104,33.291c20.208,0.001,34.257-20.195,47.106-33.291    c7.172-7.31,19.369-7.291,26.522,0c4.281,4.364,8.564,8.729,12.846,13.092c7.77,7.919,15.348,16.765,26.65,19.346    c23.694,5.411,40.195-17.64,54.729-32.453l0.075-0.076c0.034-0.034,0.059-0.055,0.065-0.064c0.091,0.005,0.286,0.071,0.421,0.207    c0.068,0.066,0.095,0.094,0.079,0.286c-4.277,50.409-19.214,92.007-44.393,123.643c-2.721,3.419-2.155,8.395,1.263,11.117    c3.419,2.72,8.395,2.155,11.117-1.263c27.158-34.121,43.234-78.586,47.779-132.159    C440.843,307.211,437.15,300.881,430.848,297.963z M368.08,327.744c-0.675-0.349-1.332-0.764-1.955-1.198    c-0.947-0.661-1.843-1.406-2.653-2.232l-22.55-22.983c-13.161-13.415-35.92-13.446-49.11,0c0,0-22.539,22.972-22.55,22.983    c-7.022,7.157-19.391,7.267-26.522,0c0,0-22.539-22.972-22.55-22.983c-13.296-13.551-35.832-13.534-49.11,0l-22.55,22.983    c-1.318,1.345-2.918,2.585-4.608,3.43c-0.044,0.023-0.092,0.042-0.137,0.065c2.435-44.611,20.706-72.959,29.229-83.887    c-0.052,0.111,14.954,6.508,16.181,7.02c20.939,8.733,44.348,10.506,66.807,10.506c27.352,0,55.58-3.611,80.259-16.094    c0.917-0.463,1.827-0.939,2.728-1.432c8.523,10.929,26.794,39.276,29.23,83.888C368.172,327.786,368.126,327.768,368.08,327.744z" fill="#f69653"/>
	</g>
</g>
<g>
</g>
<g>
</g>
<g>
</g>
<g>
</g>
<g>
</g>
<g>
</g>
<g>
</g>
<g>
</g>
<g>
</g>
<g>
</g>
<g>
</g>
<g>
</g>
<g>
</g>
<g>
</g>
<g>
</g>
</svg>
