<?xml version="1.0" encoding="iso-8859-1"?>
<!-- Generator: Adobe Illustrator 16.0.0, SVG Export Plug-In . SVG Version: 6.00 Build 0)  -->
<!DOCTYPE svg PUBLIC "-//W3C//DTD SVG 1.1//EN" "http://www.w3.org/Graphics/SVG/1.1/DTD/svg11.dtd">
<svg xmlns="http://www.w3.org/2000/svg" xmlns:xlink="http://www.w3.org/1999/xlink" version="1.1" id="Capa_1" x="0px" y="0px" width="512px" height="512px" viewBox="0 0 87.467 87.468" style="enable-background:new 0 0 87.467 87.468;" xml:space="preserve">
<g>
	<g>
		<path d="M87.417,45.895c-0.002-0.006-0.006-0.012-0.007-0.018c-0.022-1.568-0.131-3.155-0.354-4.75    c-1.746-12.551-8.264-23.279-17.453-30.634c-0.084-0.111-0.188-0.208-0.32-0.278c-0.016-0.009-0.032-0.008-0.051-0.016    C59.397,2.485,46.577-1.396,33.248,0.458C33.231,0.46,33.22,0.47,33.205,0.473c-0.015,0.003-0.03-0.002-0.045,0.001    c-0.052,0.012-0.093,0.044-0.141,0.064c-0.062,0.025-0.125,0.045-0.18,0.082c-0.055,0.036-0.096,0.082-0.142,0.128    c-0.046,0.045-0.092,0.085-0.129,0.137c-0.037,0.054-0.058,0.113-0.084,0.173c-0.025,0.058-0.053,0.112-0.067,0.175    c-0.015,0.066-0.011,0.134-0.012,0.204c-0.001,0.05-0.016,0.098-0.009,0.149c0.002,0.015,0.012,0.026,0.014,0.041    c0.003,0.016-0.002,0.031,0.001,0.047l1.549,6.69c-19.356,2.86-33.91,19.703-33.91,39.333c0,21.931,17.84,39.771,39.769,39.771    c4.517,0,8.942-0.75,13.167-2.229c0.351-0.123,0.568-0.422,0.636-0.758c0.243-0.029,0.487-0.043,0.733-0.076    c6.193-0.861,11.836-3.176,16.642-6.539c0.09-0.045,0.18-0.092,0.254-0.166c0.008-0.006,0.008-0.016,0.017-0.021    c10.016-7.135,16.297-18.885,16.147-31.684C87.409,45.96,87.421,45.926,87.417,45.895z M85.078,41.401    c0.178,1.27,0.282,2.535,0.325,3.791l-21.828,3.338c-0.022-0.465-0.057-0.934-0.123-1.403c-0.672-4.833-3.02-9.027-6.375-12.083    l12.031-22.386C77.518,19.68,83.452,29.721,85.078,41.401z M49.278,63.538c-0.02,0.004-0.037,0.002-0.057,0.006l-0.678-5.97    c1.994-0.557,3.604-1.926,4.508-3.688l6.521,2.813C57.424,60.29,53.735,62.917,49.278,63.538z M31.152,75.607    c-5.281-4.578-8.693-10.83-9.665-17.815c-0.478-3.438-0.154-6.858,0.868-10.076l12.993,0.879c-0.737,1.765-1.004,3.69-0.734,5.634    c0.451,3.25,2.059,6.055,4.342,8.073L31.152,75.607z M41.021,31.944c1.823-0.253,3.62-0.22,5.35,0.057l-0.9,9.976    c-0.547-0.026-1.1-0.005-1.651,0.072c-2.855,0.397-5.385,1.883-7.123,4.184c-0.105,0.14-0.195,0.285-0.292,0.431l-13.324-0.902    c0.733-1.733,1.66-3.398,2.824-4.939C29.591,35.941,34.96,32.788,41.021,31.944z M61.469,47.4    c0.367,2.644-0.027,5.209-0.998,7.504l-6.766-2.918c0.152-0.771,0.188-1.58,0.074-2.401c-0.322-2.338-1.541-4.408-3.424-5.833    c-0.888-0.67-1.873-1.152-2.912-1.448l0.895-9.87C55.09,34.311,60.446,40.028,61.469,47.4z M36.594,53.951    c-0.668-4.803,2.695-9.252,7.497-9.92c1.808-0.252,3.604,0.218,5.062,1.318c1.457,1.1,2.396,2.701,2.646,4.51    c0.398,2.877-1.613,5.543-4.488,5.943c-0.062,0.008-0.109,0.039-0.166,0.059c-0.067,0.021-0.141,0.035-0.199,0.07    c-0.055,0.031-0.094,0.078-0.143,0.119c-0.049,0.043-0.104,0.08-0.146,0.133c-0.039,0.051-0.062,0.111-0.088,0.17    c-0.029,0.057-0.064,0.107-0.084,0.17c-0.021,0.064-0.015,0.137-0.021,0.205c-0.004,0.062-0.021,0.117-0.015,0.178l0.765,6.72    C41.915,63.381,37.353,59.396,36.594,53.951z M67.518,11.392L55.503,33.751c-2.271-1.685-4.896-2.88-7.709-3.496    c-0.082-0.031-0.162-0.067-0.254-0.076c-0.021-0.002-0.041,0.008-0.063,0.007c-2.078-0.42-4.252-0.524-6.466-0.246L34.612,2.315    C46.77,0.92,58.428,4.46,67.518,11.392z M2.049,47.697c0-18.696,13.901-34.734,32.363-37.38l4.621,19.953    c-5.884,1.233-11.067,4.504-14.727,9.347c-4.012,5.31-5.716,11.862-4.799,18.45c1.056,7.597,4.808,14.385,10.618,19.299    c-0.266,0.476-0.108,1.074,0.363,1.353c0.159,0.095,0.333,0.14,0.505,0.14c0.249,0,0.491-0.099,0.677-0.271    c4.779,3.56,10.353,5.612,16.165,6.026c-2.619,0.568-5.303,0.854-8.018,0.854C18.992,85.465,2.049,68.523,2.049,47.697z     M54.077,82.421c-7.622,1.06-15.206-0.903-21.355-5.537l7.84-13.364c2.252,1.455,4.945,2.239,7.773,2.106c0.002,0,0.004,0,0.004,0    c0.037,0,0.076-0.002,0.113-0.007c0.01-0.002,0.014-0.006,0.021-0.008c0.359-0.021,0.718-0.045,1.078-0.094    c2.233-0.312,4.304-1.066,6.125-2.16l13.302,13.465C64.618,79.686,59.578,81.654,54.077,82.421z M70.645,75.665l-13.307-13.47    c1.887-1.479,3.428-3.354,4.506-5.479c0.021-0.032,0.049-0.063,0.062-0.103c0.004-0.008,0.002-0.014,0.006-0.021    c0.922-1.855,1.492-3.9,1.648-6.035l21.852-3.344C85.166,58.646,79.52,69.094,70.645,75.665z" fill="tomato"/>
	</g>
</g>
<g>
</g>
<g>
</g>
<g>
</g>
<g>
</g>
<g>
</g>
<g>
</g>
<g>
</g>
<g>
</g>
<g>
</g>
<g>
</g>
<g>
</g>
<g>
</g>
<g>
</g>
<g>
</g>
<g>
</g>
</svg>
