<?xml version="1.0" encoding="iso-8859-1"?>
<!-- Generator: Adobe Illustrator 19.0.0, SVG Export Plug-In . SVG Version: 6.00 Build 0)  -->
<svg xmlns="http://www.w3.org/2000/svg" xmlns:xlink="http://www.w3.org/1999/xlink" version="1.1" id="Layer_1" x="0px" y="0px" viewBox="0 0 512 512" style="enable-background:new 0 0 512 512;" xml:space="preserve" width="512px" height="512px">
<g>
	<g>
		<path d="M52.235,209.678c-5.24,0-9.503,4.257-9.503,9.49s4.263,9.49,9.503,9.49c5.241,0,9.503-4.257,9.503-9.49    S57.475,209.678,52.235,209.678z" fill="#212f3d"/>
	</g>
</g>
<g>
	<g>
		<path d="M511.36,370.182l-39.122-94.558c-0.99-2.498-16.151-40.605-31.917-72.91c-0.105-0.215-0.211-0.434-0.315-0.649    c-0.483-0.985-0.965-1.962-1.448-2.935c-0.472-0.954-0.939-1.885-1.404-2.808c-0.159-0.315-0.318-0.633-0.477-0.946    c-3.754-7.421-7.21-13.784-10.357-19.075c-0.148-0.249-0.296-0.497-0.443-0.743c-0.33-0.548-0.656-1.089-0.98-1.613    c-0.312-0.507-0.622-1.007-0.929-1.496c-0.195-0.31-0.388-0.612-0.581-0.912c-0.321-0.502-0.64-0.992-0.957-1.472    c-0.113-0.172-0.229-0.351-0.341-0.518c-0.412-0.618-0.818-1.21-1.222-1.789c-0.119-0.171-0.238-0.339-0.356-0.506    c-0.412-0.581-0.819-1.149-1.221-1.687c-0.008-0.011-0.016-0.024-0.025-0.034c-4.406-5.892-17.661-23.611-38.499-39.376    c-0.072-0.055-0.145-0.109-0.217-0.164c-0.3-0.226-0.596-0.453-0.899-0.678c-0.066-0.049-0.139-0.085-0.206-0.131    c-28.186-20.912-55.961-27.7-77.117-29.115c-44.069-2.942-91.104,14.366-140.377,51.517c-0.149,0.11-0.301,0.217-0.442,0.336    c-16.431,12.424-33.108,27.047-50.009,43.874c-5.198-3.898-13.318-9.616-22.842-15.026    c-22.918-13.016-42.153-17.616-57.176-13.676c-37.468,9.833-31.205,74.144-30.92,76.876c0.167,1.603,0.791,3.123,1.798,4.382    c0.589,0.737,14.695,18.269,36.636,35.991c3.245,2.622,6.478,5.094,9.698,7.436C17.922,324.001,7.84,349.054,4.897,363.985    c-0.416,2.113-0.007,4.305,1.144,6.125c0.716,1.132,16.562,25.678,43.035,25.678c2.235,0,4.551-0.175,6.935-0.554    c1.902-0.304,3.644-1.249,4.933-2.681l38.468-42.727c-6.377,17.159-11.391,32.603-13.325,43.077    c-0.535,2.9,0.486,5.868,2.692,7.826c0.846,0.751,17.886,15.525,45.848,15.524c5.563,0,11.561-0.585,17.948-1.982    c2.817-0.617,5.122-2.632,6.109-5.342l22.396-61.465l79.229,6.13c13.897,5.572,30.685,9.521,50.946,10.544    c10.06,0.507,19.778,0.764,28.9,0.764c0.239,0,0.478,0,0.716,0c4.648-0.007,8.411-3.781,8.404-8.429    c-0.007-4.645-3.773-8.404-8.417-8.404c-0.003,0-0.009,0-0.012,0c-9.056-0.021-18.709-0.236-28.743-0.742    c-17.239-0.871-32.576-4.021-45.95-9.404c-0.27-0.149-0.549-0.288-0.839-0.41c-12.059-4.988-21.584-11.418-29.12-18.311    c-0.364-0.336-0.729-0.668-1.087-1.01c-0.146-0.137-0.283-0.276-0.428-0.414c-3.323-3.212-6.414-6.676-9.262-10.4    c-5.05-6.605-8.65-13.187-11.192-18.923c0.973,0.438,1.934,0.853,2.888,1.257c0.191,0.081,0.38,0.158,0.57,0.238    c0.08,0.034,0.158,0.066,0.238,0.099c0.025,0.01,0.048,0.02,0.073,0.03c0.659,0.274,1.312,0.54,1.961,0.797    c0.285,0.113,0.57,0.226,0.854,0.337c0.59,0.229,1.176,0.45,1.758,0.667c0.185,0.068,0.371,0.139,0.556,0.206    c0.174,0.064,0.349,0.13,0.523,0.193c0.419,0.15,0.832,0.291,1.246,0.433c0.237,0.082,0.475,0.166,0.71,0.246    c0.239,0.081,0.478,0.162,0.716,0.24c0.273,0.09,0.542,0.174,0.813,0.26c0.039,0.012,0.079,0.025,0.117,0.037    c0.24,0.076,0.483,0.157,0.722,0.231c0.379,0.118,0.754,0.228,1.129,0.339c0.268,0.08,0.536,0.16,0.803,0.237    c0.125,0.036,0.249,0.074,0.374,0.109c0.771,0.218,1.535,0.423,2.288,0.613c0.391,0.098,0.819,0.203,1.228,0.304    c0.33,0.082,0.655,0.163,0.994,0.247c0.368,0.091,0.746,0.183,1.127,0.276c0.611,0.149,1.236,0.3,1.874,0.453    c0.198,0.047,0.388,0.093,0.588,0.14c22.325,5.333,61.042,13.049,103.116,14.546c3.183,0.113,6.313,0.175,9.42,0.214    c0.052,0.001,0.102,0.009,0.154,0.009c0.899,0.01,1.788,0.011,2.68,0.017c0.681,0.003,1.375,0.019,2.053,0.019    c4.652,0,9.193-0.109,13.673-0.278c0.245-0.009,0.49-0.016,0.735-0.026c1.828-0.073,3.641-0.162,5.44-0.264    c0.426-0.024,0.853-0.052,1.279-0.077c5.656-0.342,11.167-0.825,16.533-1.45c0.315-0.037,0.633-0.065,0.948-0.103l25.58,27.665    c-7.835,3.465-22.956,8.18-49.77,10.268c-4.635,0.361-8.099,4.411-7.738,9.046c0.361,4.634,4.418,8.088,9.045,7.738    c32.745-2.552,50.416-8.813,59.499-13.628c10.917,16.172,17.381,31.333,18.855,44.477c0.419,3.735,3.262,6.74,6.968,7.363    c3.378,0.568,7.421,0.938,11.767,0.938c17.153,0,39.016-5.773,43.241-27.945C512.158,373.364,511.988,371.697,511.36,370.182z     M301.204,112.865c15.758,1.054,35.706,5.533,56.655,18.126l-17.542,8.696l-43.774-15.547c-2.193-0.778-4.611-0.616-6.681,0.453    l-35.06,18.113l-30.813-13.529C250.857,116.706,276.646,111.228,301.204,112.865z M155.769,173.989l-1.729,12.804l-18.528,25.325    l-10.993-9.541C135.056,192.14,145.474,182.621,155.769,173.989z M17.113,235.76c-0.302-4.715-0.7-15.513,0.939-26.623    c3.186-21.595,11.385-28.104,17.701-29.762c21.737-5.713,58.291,19.512,70.835,29.937c2.439,2.35,17.648,16.872,38.108,33.443    c-4.729,10.31-14.729,32.367-25.208,57.076c-0.226-0.018-0.448-0.028-0.673-0.048c-0.261-0.022-0.523-0.044-0.783-0.07    c-0.993-0.096-1.99-0.212-2.992-0.348c-0.245-0.034-0.489-0.072-0.734-0.108c-0.86-0.125-1.723-0.264-2.589-0.417    c-0.236-0.042-0.471-0.08-0.706-0.123c-0.989-0.184-1.983-0.389-2.981-0.611c-0.307-0.068-0.615-0.139-0.922-0.211    c-0.962-0.223-1.927-0.46-2.896-0.718c-0.248-0.066-0.495-0.137-0.742-0.205c-0.846-0.232-1.696-0.48-2.547-0.738    c-0.333-0.101-0.667-0.201-0.999-0.305c-0.943-0.296-1.889-0.612-2.838-0.94c-0.377-0.13-0.752-0.265-1.128-0.399    c-0.898-0.322-1.798-0.654-2.701-1.004c-0.393-0.153-0.783-0.311-1.175-0.468c-0.728-0.292-1.46-0.593-2.192-0.903    c-0.48-0.203-0.96-0.407-1.438-0.616c-0.791-0.347-1.585-0.706-2.38-1.074c-0.452-0.209-0.903-0.417-1.353-0.632    c-0.846-0.403-1.695-0.819-2.544-1.247c-0.494-0.248-0.986-0.498-1.478-0.753c-0.806-0.416-1.613-0.842-2.422-1.279    c-0.544-0.294-1.085-0.594-1.626-0.894c-0.581-0.323-1.164-0.654-1.747-0.989c-0.786-0.45-1.567-0.906-2.342-1.368    c-0.336-0.2-0.672-0.404-1.008-0.608c-1.063-0.643-2.118-1.294-3.161-1.957c-0.017-0.011-0.035-0.022-0.053-0.034    C42.463,264.311,22.719,242.317,17.113,235.76z M50.586,378.9c-13.853,0.72-24.234-10.045-28.369-15.173    c5.971-23.048,26.154-49.676,40.583-66.538c15.396,9.337,30.459,15.382,45.072,18.083L50.586,378.9z M227.691,334.189    l-51.682-3.999c-3.764-0.293-7.264,1.963-8.558,5.51l-22.94,62.956c-20.014,3.046-34.319-3.754-40.762-7.805    c4.336-17.791,15.782-47.568,28.168-77.187c0.027-0.034,0.051-0.071,0.077-0.105c0.128-0.168,0.26-0.334,0.374-0.511    c0.098-0.15,0.178-0.313,0.266-0.47c0.112-0.201,0.227-0.4,0.321-0.608c0.017-0.036,0.039-0.067,0.055-0.104l25.472-58.288    c6.954,5.282,14.259,10.549,21.689,15.501c0.123,0.083,0.246,0.164,0.369,0.246c1.166,0.775,2.334,1.544,3.506,2.303    c0.543,0.352,1.08,0.693,1.618,1.038c0.578,0.369,1.155,0.737,1.734,1.102c1.131,0.714,2.251,1.408,3.363,2.09    c0.239,0.146,0.478,0.294,0.716,0.439c0.382,0.232,0.77,0.477,1.149,0.705C194.904,287.047,202.913,313.071,227.691,334.189z     M221.133,228.173c-4.172-2.048-9.216-0.323-11.263,3.85c-2.047,4.175-0.323,9.217,3.852,11.263l16.967,8.321l-3.123,24.159    c-0.178-0.068-0.356-0.134-0.535-0.203c-0.985-0.383-1.985-0.786-3.003-1.213c-0.238-0.1-0.476-0.2-0.715-0.302    c-1.211-0.518-2.439-1.064-3.692-1.646c-0.056-0.026-0.112-0.052-0.169-0.079c-9.686-4.517-20.631-10.92-32.55-19.025    c-0.178-0.122-0.359-0.246-0.539-0.368c-1.479-1.01-2.974-2.046-4.482-3.107c-0.425-0.3-0.855-0.607-1.282-0.91    c-1.284-0.911-2.577-1.836-3.881-2.784c-0.736-0.536-1.481-1.087-2.225-1.635c-1.032-0.76-2.065-1.52-3.109-2.302    c-1.095-0.821-2.204-1.667-3.313-2.513c-0.679-0.517-1.353-1.027-2.036-1.553c-0.07-0.054-0.14-0.107-0.21-0.161    c-1.439-1.111-2.894-2.25-4.353-3.401c-0.051-0.04-0.101-0.08-0.153-0.119c-0.343-0.272-0.68-0.541-1.021-0.813l-12.028-10.439    l14.723-20.125l27.249,28.15c3.233,3.342,8.56,3.428,11.901,0.194c3.34-3.233,3.427-8.561,0.193-11.9l-31.353-32.391l3.757-27.819    l30.461-19.986l42.515,18.664l15.13,74.58l0.036,0.178l-22.053,5.093L221.133,228.173z M243.979,280.473    c-0.017-0.004-0.033-0.008-0.048-0.011l3.474-26.872l24.266-5.603l29.602,15.054c1.182,0.6,2.489,0.914,3.814,0.914h36.062    l1.238,30.171C302.049,292.703,264.755,285.344,243.979,280.473z M346.347,247.12h-39.243l-26.904-13.683l-10.821-53.34    l-4.77-23.51l29.737-15.363l39.707,14.103l7.913,25.798l1.218,3.97v0.001l0.002,0.008c1.364,4.444,6.07,6.941,10.515,5.579    c4.444-1.363,6.941-6.07,5.579-10.514l-0.586-1.909l-7.693-25.079l22.615-11.212c10.807,8.609,21.669,19.608,32.165,33.648    c0.434,0.58,0.878,1.201,1.327,1.842c0.238,0.34,0.483,0.706,0.727,1.067c0.182,0.268,0.362,0.534,0.547,0.811    c6.077,9.196,14.113,24.541,23.526,44.944l-7.103,15.117l-31.731,7.128l-16.981-11.548l-7.263-23.676    c-1.363-4.444-6.067-6.94-10.515-5.579c-4.168,1.278-6.622,5.498-5.788,9.683c0.055,0.279,0.126,0.558,0.211,0.836l6.424,20.942    l-1.571,1.219L346.347,247.12z M412.847,288.984c-5.919,1.245-11.942,2.253-18.029,3.037c-0.024,0.003-0.047,0.006-0.071,0.009    c-11.715,1.506-23.659,2.21-35.503,2.321l-1.429-34.821l11.422-8.857l17.388,11.824c0.313,0.212,0.642,0.394,0.976,0.561    c0.09,0.045,0.18,0.086,0.269,0.128c0.297,0.136,0.6,0.256,0.91,0.355c0.048,0.016,0.093,0.036,0.141,0.05    c0.347,0.104,0.7,0.181,1.057,0.24c0.103,0.017,0.208,0.03,0.312,0.043c0.296,0.038,0.594,0.061,0.893,0.066    c0.058,0.001,0.116,0.013,0.173,0.013c0.025,0,0.049-0.003,0.074-0.004c0.169-0.001,0.338-0.017,0.507-0.028    c0.127-0.009,0.254-0.011,0.38-0.026c0.285-0.033,0.57-0.081,0.854-0.143c0.01-0.002,0.019-0.002,0.029-0.004l39.313-8.832    c2.536-0.57,4.667-2.279,5.773-4.633l2.696-5.737c5.468,12.54,10.071,23.652,12.832,30.417c-0.07,0.036-0.137,0.074-0.206,0.109    c-1.254,0.64-2.533,1.259-3.825,1.867c-0.673,0.316-1.358,0.624-2.042,0.931c-0.67,0.302-1.344,0.6-2.025,0.894    c-0.816,0.352-1.634,0.703-2.464,1.044c-0.441,0.181-0.891,0.355-1.337,0.533c-2.11,0.841-4.255,1.653-6.457,2.42    c-0.012,0.005-0.024,0.009-0.036,0.013c-0.006,0.002-0.011,0.003-0.017,0.006c-1.18,0.411-2.375,0.807-3.58,1.196    c-0.212,0.068-0.424,0.137-0.637,0.204c-1.138,0.362-2.287,0.716-3.447,1.059c-0.174,0.052-0.348,0.102-0.521,0.153    c-1.111,0.325-2.234,0.64-3.367,0.948c-0.275,0.074-0.55,0.149-0.826,0.223c-1.01,0.269-2.032,0.53-3.058,0.786    c-0.393,0.098-0.786,0.198-1.179,0.293c-0.864,0.21-1.739,0.411-2.615,0.611c-0.554,0.126-1.108,0.257-1.664,0.378    C413.962,288.754,413.402,288.866,412.847,288.984z M477.991,385.316c-4.551,0.753-9.058,0.783-12.47,0.617    c-3.749-18.331-13.984-36.378-25.082-51.585c-0.304-0.521-0.662-1.02-1.087-1.48l-0.024-0.026    c-8.174-11.008-16.709-20.446-23.393-27.294c0.191-0.04,0.374-0.086,0.565-0.127c1.671-0.355,3.323-0.725,4.959-1.111    c0.429-0.101,0.855-0.205,1.282-0.309c1.681-0.409,3.349-0.828,4.993-1.27c0.277-0.074,0.549-0.154,0.825-0.229    c7.047-1.928,13.749-4.175,20.104-6.738c0.626-0.253,1.259-0.498,1.879-0.756c1.069-0.447,2.121-0.91,3.17-1.376    c0.843-0.373,1.683-0.747,2.513-1.132c0.908-0.421,1.807-0.851,2.698-1.286c0.429-0.209,0.871-0.405,1.295-0.617l34.532,83.466    C493.331,378.407,489.581,383.397,477.991,385.316z" fill="#212f3d"/>
	</g>
</g>
<g>
</g>
<g>
</g>
<g>
</g>
<g>
</g>
<g>
</g>
<g>
</g>
<g>
</g>
<g>
</g>
<g>
</g>
<g>
</g>
<g>
</g>
<g>
</g>
<g>
</g>
<g>
</g>
<g>
</g>
</svg>
